<?xml version="1.0" encoding="UTF-8"?>
<svg width="92px" height="36px" viewbox="0 0 92 36" version="1.1" xmlns="http://www.w3.org/2000/svg" xmlns:xlink="http://www.w3.org/1999/xlink">
    <!-- generator: sketch 41.2 (35397) - http://www.bohemiancoding.com/sketch -->
    <title>bdo</title>
    <desc>created with sketch.</desc>
    <defs></defs>
    <g id="page-1" stroke="none" stroke-width="1" fill="none" fill-rule="evenodd">
        <g id="bdo" fill="#1a1918">
            <g id="lines" transform="translate(0.000000, 0.323944)">
                <polyline id="vertical" points="0 0.0161971831 0 33.0801549 5.23104225 29.4163521 5.23104225 0.0161971831 0 0.0161971831"></polyline>
                <polyline id="horizontal" points="6.20935211 30.6392394 0 34.9859155 91.5354648 34.9859155 91.5354648 30.6392394 6.20935211 30.6392394"></polyline>
            </g>
            <path d="m69.2202817,13.6017465 c69.2202817,6.10180282 74.387507,3.9945493 77.7351408,3.9945493 c81.0821268,3.9945493 86.2493521,6.10180282 86.2493521,13.6017465 c86.2493521,21.1020141 81.0821268,23.2086197 77.7351408,23.2086197 c74.387507,23.2086197 69.2202817,21.1020141 69.2202817,13.6017465 z m63.6403521,13.6017465 c63.6403521,24.184338 72.1931127,27.1568451 77.7351408,27.1568451 c83.2755493,27.1568451 91.8292817,24.184338 91.8292817,13.6017465 c91.8292817,3.01947887 83.2755493,0.0463239437 77.7351408,0.0463239437 c72.1931127,0.0463239437 63.6403521,3.01947887 63.6403521,13.6017465 l63.6403521,13.6017465 z" id="o"></path>
            <path d="m42.7579718,4.43835211 l46.4055775,4.43835211 c47.9106197,4.43835211 55.5861408,4.81898592 55.5861408,13.6020704 c55.5861408,23.6235915 46.4055775,22.764169 46.4055775,22.764169 l43.2558732,22.7654648 l37.4018873,26.8633521 l37.4018873,26.864 l47.9106197,26.864 c54.4555775,26.864 61.1657465,22.8386761 61.1657465,13.6020704 c61.1657465,5.41277465 55.3065775,0.340140845 47.9106197,0.340140845 l36.4232535,0.340140845 l37.4018873,2.5121831 l37.4018873,24.9546761 l42.7579718,21.2050282 l42.7579718,4.43835211" id="d"></path>
            <path d="m17.4187746,4.43835211 l23.0317465,4.43835211 c24.5727465,4.43835211 26.5235352,4.80602817 26.5235352,7.42284507 c26.5235352,10.0403099 23.7343803,11.1070563 21.6653521,11.1070563 l17.4187746,11.1070563 l17.4187746,4.43835211 z m17.4187746,14.6636338 l20.6167465,14.6636338 c25.8724085,14.6636338 28.5510986,15.8120141 28.5510986,18.8875352 c28.5510986,21.6135211 26.4023803,22.7661127 23.0327183,22.7661127 l17.9153803,22.7661127 l12.063338,26.8636761 l12.063338,26.864 l22.9925493,26.8614085 c29.537831,26.8614085 33.9444366,24.5050423 33.9444366,19.0520986 c33.9444366,14.2956338 30.0441549,12.4277746 26.5640282,12.4277746 c28.9693099,12.4277746 31.8112676,10.2722535 31.8112676,6.61752113 c31.8112676,2.96343662 28.4691408,0.339816901 24.6585915,0.339816901 l13.5032676,0.340140845 l11.0840563,0.340140845 l12.063338,2.5121831 l12.063338,24.9556479 l17.4187746,21.2050282 l17.4187746,14.6636338 l17.4187746,14.6636338 z" id="b"></path>
        </g>
    </g>
</svg>
